<?xml version="1.0" encoding="utf-8"?>
<!-- Generator: Adobe Illustrator 27.5.0, SVG Export Plug-In . SVG Version: 6.00 Build 0)  -->
<svg version="1.1" id="_x34_04" xmlns="http://www.w3.org/2000/svg" xmlns:xlink="http://www.w3.org/1999/xlink" x="0px" y="0px"
	 viewBox="0 0 3000 3000" style="enable-background:new 0 0 3000 3000;" xml:space="preserve">
<g id="_x34_04_00000142885157787876915790000016425091377864950409_">
	<g id="_x34_">
		<path d="M2467.172,1996.445c-4.99,0-10.099-0.33-15.301-0.996c-21.859-2.804-45.918-18.012-59.869-37.843
			c-16.12-22.914-16.977-46.396-15.501-68.356c5.754-85.607,14.512-172.284,26.039-257.713
			c-110.064-32.378-220.77-66.128-329.135-100.34c-16.176-2.926-30.756-9.762-43.344-20.32
			c-12.214-10.424-21.266-23.29-26.936-38.267c-11.351-30.422-5.424-64.671,15.848-91.638
			c47.148-59.77,92.3-122.771,134.199-187.255c61.081-96.269,115.993-197.493,163.18-300.812
			c10.178-22.285,28.814-38.947,52.474-46.919c22.737-7.66,47.664-6.687,70.194,2.74c20.643,8.637,36.844,25.738,45.616,48.151
			c9.473,24.205,8.969,52.144-1.35,74.738c-18.667,40.871-38.33,81.119-58.442,119.625
			c-53.983,103.357-115.808,204.384-183.821,300.39c65.788,20.188,132.724,40.293,199.144,59.816
			c19.989-27.552,55.184-42.293,90.808-37.723c22.453,2.879,42.835,15.325,57.391,35.045c15.613,21.151,22.142,47.282,17.913,71.696
			c-22.8,131.663-38.903,266.018-47.863,399.332c-1.986,29.548-27.021,51.839-37.693,60.051
			C2506.571,1990.733,2487.932,1996.445,2467.172,1996.445z M2399.835,851.236c-31.523,0-60.681,16.944-73.96,46.019
			c-47.385,103.752-102.527,205.4-163.895,302.119c-42.104,64.799-87.443,128.063-134.788,188.083
			c-18.987,24.07-24.321,54.526-14.267,81.469c5.03,13.287,13.073,24.72,23.897,33.958c11.219,9.409,24.268,15.497,38.75,18.064
			c0.225,0.04,0.445,0.094,0.662,0.163c109.817,34.673,222.048,68.873,333.573,101.65c2.484,0.729,4.061,3.164,3.712,5.728
			c-11.793,86.636-20.733,174.605-26.57,261.464c-1.347,20.041-0.629,41.378,13.617,61.63
			c12.169,17.299,33.814,31.066,52.636,33.482c24.092,3.082,45.794-1.713,61.135-13.517c9.546-7.345,31.931-27.161,33.63-52.455l0,0
			c8.984-133.676,25.132-268.396,47.994-400.416c3.688-21.295-2.302-45.105-16.021-63.692
			c-12.843-17.399-30.706-28.364-50.298-30.877c-33.053-4.236-65.613,10.013-82.954,36.309c-1.267,1.921-3.639,2.788-5.846,2.141
			c-69.98-20.554-140.576-41.766-209.825-63.048c-1.608-0.494-2.88-1.73-3.42-3.324c-0.54-1.594-0.282-3.349,0.694-4.718
			c69.392-97.378,132.399-200.019,187.271-305.076c20.025-38.343,39.606-78.424,58.197-119.128
			c9.165-20.067,9.585-44.953,1.125-66.572c-7.73-19.749-21.902-34.774-39.909-42.307
			C2423.395,853.539,2411.452,851.236,2399.835,851.236z"/>
		<path d="M2488.057,1332.094c-48.151-5.181-94.205,25.269-101.781,74.754l-4.628,30.227
			c-52.761-9.355-105.523-18.709-158.285-28.063c-37.343-6.621-74.686-13.241-112.028-19.862c-0.419-0.074-0.845-0.14-1.265-0.214
			c6.358-11.344,12.716-22.689,19.074-34.033c23.071-41.165,46.142-82.331,69.213-123.496
			c46.562-83.08,93.123-166.16,139.684-249.239c10.729-19.144,9.319-49.698,1.515-69.378c-7.911-19.95-26.232-40.626-46.541-48.641
			c-21.808-8.605-47.341-11.375-69.378-1.515c-22.3,9.978-36.706,25.247-48.64,46.541
			c-69.633,124.245-139.265,248.492-208.897,372.737c-17.618,31.434-35.236,62.87-52.853,94.306
			c-10.413,18.581-19.293,35.017-21.944,57.01c-3.014,25.005,2.681,52.105,18.344,72.344c17.037,22.015,39.531,34.2,66.36,40.581
			c32.191,7.656,65.528,11.949,98.117,17.726c35.645,6.32,71.291,12.639,106.936,18.959
			c57.854,10.256,115.708,20.514,173.562,30.771l-34.955,228.313c-7.069,46.17,26.759,96.618,74.754,101.781
			c48.151,5.179,94.205-25.271,101.781-74.754l66.609-435.075C2569.88,1387.703,2536.053,1337.257,2488.057,1332.094z"/>
	</g>
	<g id="_x30_">
		<path d="M1720.882,1351.275c-124.341-94.462-289.086-152.714-442.047-95.512c-70.921,26.522-129.636,75.218-165.657,142.156
			c-39.195,72.836-61.311,161.169-55.837,243.978c2.704,40.913,12.704,80.998,31.274,117.644
			c18.532,36.57,44.732,69.268,73.637,98.16c54.448,54.425,121.879,96.131,195.286,119.509
			c71.672,22.825,148.776,27.073,222.059,9.454c69.558-16.724,135.136-52.237,185.832-102.887
			c102.558-102.464,130.764-267.956,60.34-396.369c-8.444-15.397-18.392-29.802-29.378-43.486
			c-7.979-9.939-21.914,4.154-14.005,14.005c86.374,107.588,80.663,270.102-1.37,378.158
			c-84.948,111.895-234.702,161.198-370.693,134.287c-71.053-14.06-138.493-46.308-194.93-91.611
			c-59.792-47.996-112.337-110.826-130.66-186.693c-18.883-78.187-4.286-161.536,23.679-235.704
			c13.779-36.545,32.261-72.15,58.121-101.665c22.344-25.502,49.331-46.35,79.157-62.39c61.924-33.302,133.94-44.97,203.525-37.456
			c76.755,8.288,149.868,39.158,214.496,80.483c16.185,10.349,31.88,21.423,47.175,33.043
			C1721.033,1376.086,1730.912,1358.894,1720.882,1351.275L1720.882,1351.275z"/>
		<path d="M1390.12,1460.02c-7.332-12.536-27.815-20.455-40.647-10.658c-13.696,10.456-27.393,20.912-41.089,31.368
			c-7.701-13.781-15.401-27.561-23.102-41.342c-7.823-13.999-26.992-18.646-40.648-10.658
			c-14.103,8.249-18.513,26.592-10.658,40.648c8.899,15.925,17.798,31.85,26.698,47.776c-12.568,9.594-25.135,19.188-37.702,28.783
			c-12.732,9.72-19.465,25.59-10.658,40.648c7.332,12.536,27.815,20.455,40.648,10.658c12.259-9.359,24.518-18.718,36.777-28.077
			c5.496,9.835,10.992,19.671,16.488,29.506c7.823,13.999,26.992,18.645,40.648,10.658c14.103-8.249,18.513-26.592,10.658-40.648
			c-6.695-11.98-13.389-23.96-20.084-35.94c14.004-10.691,28.009-21.382,42.013-32.074
			C1392.195,1490.948,1398.928,1475.078,1390.12,1460.02z"/>
		<path d="M1710.342,1456.224c-7.301-12.482-27.862-20.52-40.648-10.658c-23.947,18.469-47.893,36.938-71.839,55.407
			c-11.08-16.634-22.159-33.267-33.239-49.901c-8.885-13.338-26.222-19.095-40.648-10.658
			c-13.245,7.747-19.593,27.234-10.658,40.648c12.485,18.743,24.97,37.486,37.455,56.23c-20.479,15.795-40.958,31.589-61.437,47.384
			c-12.684,9.783-19.494,25.542-10.658,40.648c7.301,12.482,27.862,20.519,40.648,10.658c21.401-16.506,42.801-33.011,64.202-49.517
			c18.403,27.629,36.807,55.257,55.21,82.886c8.885,13.338,26.222,19.095,40.648,10.658c13.245-7.747,19.593-27.234,10.658-40.648
			c-19.809-29.738-39.618-59.477-59.426-89.215c23.025-17.758,46.049-35.516,69.074-53.274
			C1712.368,1487.089,1719.178,1471.33,1710.342,1456.224z"/>
		<path d="M1283.202,1748.408c6.067-2.534,11.03-5.812,15.607-10.582c4.418-4.605,8.171-11.184,13.688-14.562
			c15.282-9.356,24.42,21.935,29.641,30.854c18.498,31.6,56.506,25.29,79.639,2.716c5.882-5.74,10.534-12.411,15.859-18.622
			c6.562-7.653,12.965-9.37,19.205-0.329c9.566,13.86,6.984,32.489,19.119,45.525c24.065,25.853,61.35,11.134,84.489-7.235
			c14.216-11.285,28.704-30.041,48.559-19.417c18.724,10.019,23.692,33.162,28.26,52.079c2.991,12.384,22.094,7.14,19.099-5.265
			c-7.654-31.696-25.329-75.877-66.298-69.547c-32.55,5.03-55.378,57.723-92.579,40.834c-16.958-7.699-14.233-31.651-22.782-45.8
			c-8.413-13.924-24.811-22.963-40.32-14.244c-15.459,8.691-22.195,27.604-37.796,36.781c-7.165,4.215-16.005,6.495-24.195,4.097
			c-9.226-2.701-13.369-11.431-17.163-19.471c-7.782-16.494-19.248-36.49-40.63-34.298c-7.681,0.788-14.051,4.951-19.462,10.237
			c-5.432,5.307-9.946,14.118-17.204,17.149C1266.347,1734.15,1271.434,1753.323,1283.202,1748.408L1283.202,1748.408z"/>
	</g>
	<g id="_x34__00000010307095905735109390000010291835470953325483_">
		<path d="M958.949,1918.199c-14.107-133.593-21.232-267.836-21.346-402.171c-0.039-45.519-39.999-89.128-87.022-87.022
			c-35.335,1.583-66.638,22.297-80.066,53.135c-72.541-8.258-145.031-16.964-217.463-26.128
			c51.707-107.915,96.109-219.492,132.453-333.338c13.471-42.198,25.766-84.757,36.987-127.608
			c11.517-43.983-14.561-96.521-60.78-107.047c-45.51-10.366-94.71,13.661-107.048,60.78
			c-28.997,110.736-65.594,219.337-109.436,325.068c-30.26,70.802-63.694,140.186-100.311,207.925
			c-14.936,27.629-16.123,60.291,0,87.843c7.736,13.078,18.143,23.484,31.22,31.219c13.573,7.873,28.214,11.832,43.922,11.882
			c115.242,15.478,230.639,29.788,346.166,42.961c3.248,87.675,9.464,175.228,18.68,262.503
			c2.504,23.709,8.038,44.083,25.488,61.534c15.093,15.094,39.857,26.459,61.534,25.489c22.506-1.009,45.848-8.401,61.534-25.489
			C948.123,1963.76,961.327,1940.729,958.949,1918.199z"/>
		<path d="M947.311,1993.063c-21.415,0-46.25-10.653-62.674-27.08c-19.812-19.812-24.682-42.797-26.993-64.685
			c-9.009-85.314-15.243-172.209-18.536-258.362c-113.969-13.024-228.823-27.292-341.467-42.418
			c-16.438-0.109-31.974-4.343-46.185-12.586c-13.823-8.177-24.945-19.3-33.099-33.083c-16.401-28.025-16.433-62.783-0.099-92.998
			c36.198-66.964,69.878-136.774,100.103-207.492c43.67-105.317,80.412-214.457,109.185-324.336
			c6.206-23.7,21.708-43.312,43.651-55.222c21.085-11.444,45.81-14.761,69.624-9.337c21.819,4.97,40.712,19.039,53.197,39.616
			c13.483,22.221,17.776,49.834,11.484,73.863c-11.378,43.452-23.848,86.475-37.063,127.874
			c-35.462,111.081-79.048,221.213-129.593,327.461c68.251,8.604,137.651,16.936,206.452,24.784
			c14.968-30.571,47.112-51.129,82.995-52.736c22.612-1,44.827,7.753,62.549,24.684c19.008,18.16,29.922,42.786,29.943,67.563
			c0.113,133.619,7.285,268.745,21.317,401.625c3.11,29.454-17.733,55.704-26.838,65.624
			c-14.975,16.315-38.115,25.966-65.156,27.178C949.183,1993.042,948.249,1993.063,947.311,1993.063z M717.937,873.342
			c-37.608,0-70.867,23.455-80.261,59.332c-28.894,110.341-65.79,219.938-109.665,325.748
			c-30.372,71.063-64.192,141.164-100.542,208.409c-14.579,26.969-14.612,57.888-0.087,82.708
			c7.233,12.227,17.117,22.112,29.366,29.358c12.665,7.346,26.564,11.106,41.272,11.152c0.228,0.001,0.455,0.016,0.681,0.047
			c114.154,15.331,230.586,29.782,346.063,42.948c2.572,0.293,4.543,2.421,4.639,5.007c3.237,87.387,9.514,175.586,18.655,262.147
			c2.109,19.974,6.475,40.872,23.984,58.382c14.955,14.956,38.654,24.807,57.598,23.961c24.255-1.087,44.822-9.54,57.912-23.8
			c8.144-8.873,26.801-32.232,24.139-57.443c-14.07-133.241-21.262-268.735-21.375-402.716
			c-0.018-21.612-10.002-44.043-26.706-60.001c-15.636-14.939-35.112-22.676-54.847-21.795c-33.289,1.491-62.925,21.115-75.5,49.995
			c-0.919,2.11-3.113,3.374-5.392,3.112c-72.492-8.253-145.679-17.046-217.528-26.136c-1.668-0.211-3.134-1.211-3.94-2.688
			c-0.805-1.477-0.852-3.251-0.124-4.768c51.669-107.835,96.143-219.761,132.187-332.669c13.16-41.224,25.578-84.067,36.909-127.342
			c5.588-21.341,1.735-45.932-10.307-65.779c-11.002-18.131-27.541-30.504-46.571-34.838
			C731.579,874.098,724.686,873.342,717.937,873.342z"/>
	</g>
	<g id="cross">
		<path d="M1183.503,613.349c-6.791-3.498-13.581-6.996-20.371-10.493c4.946-8.745,9.84-17.52,14.628-26.36
			c12.967-23.939,5.943-54.93-18.089-68.987c-22.976-13.44-55.975-5.935-68.988,18.09c-5.642,10.416-11.417,20.753-17.278,31.04
			c-14.163-7.296-28.326-14.592-42.489-21.886c-24.2-12.466-54.731-6.285-68.988,18.09c-13.207,22.58-6.209,56.471,18.089,68.988
			c13.573,6.991,27.145,13.981,40.718,20.973c-5.313,8.121-10.673,16.217-16.131,24.248c-15.314,22.533-4.283,55.903,18.089,68.988
			c24.892,14.559,53.638,4.496,68.988-18.089c6.472-9.522,12.817-19.124,19.084-28.773c7.28,3.75,14.56,7.499,21.84,11.25
			c24.2,12.466,54.731,6.285,68.988-18.089C1214.8,659.758,1207.801,625.867,1183.503,613.349z"/>
		<path d="M2358.309,2500c-0.594,0-1.184-0.011-1.776-0.033c-14.645-0.54-28.132-6.878-37.978-17.845
			c-9.465-10.543-14.813-24.382-15.056-38.969l-0.341-20.361c-10.872-0.933-20.815-1.875-30.28-2.867
			c-31.642-3.32-53.813-27.309-52.717-57.041c0.546-14.85,8.064-29.955,20.108-40.406c10.948-9.5,24.194-13.972,37.268-12.604
			c7.275,0.763,14.93,1.502,23.769,2.29l-0.679-40.626c-0.224-13.432,5.396-26.458,15.825-36.678
			c11.162-10.938,26.569-17.147,41.241-16.603c14.645,0.54,28.131,6.877,37.979,17.844c9.465,10.543,14.812,24.382,15.055,38.97
			l0.726,43.322c11.026,0.258,21.193,0.402,30.959,0.442c13.819,0.056,27.05,5.943,37.258,16.578
			c10.661,11.107,16.467,25.865,15.927,40.488c-1.079,29.288-26.483,53.032-56.675,53.034c-0.08,0-0.155,0-0.234,0
			c-7.788-0.031-15.956-0.135-25.39-0.326l0.301,18.079c0.225,13.429-5.394,26.455-15.823,36.675
			C2387.065,2493.858,2372.432,2500,2358.309,2500z M2272.91,2318.94c-9.302,0-18.603,3.679-26.541,10.567
			c-10.133,8.792-16.453,21.399-16.908,33.72c-1.032,27.98,21.55,45.045,44.388,47.441c10.604,1.113,21.816,2.162,34.28,3.205
			l4.195,0.351l0.479,28.773c0.44,26.265,19.387,46.758,44.073,47.669c12.166,0.433,25.015-4.768,34.386-13.953
			c8.584-8.414,13.213-19.023,13.032-29.872l-0.463-27.751l4.836,0.108c11.476,0.255,21.027,0.392,30.058,0.427
			c0.065,0,0.132,0,0.197,0c25.246,0,46.478-19.73,47.375-44.07c0.447-12.118-4.416-24.402-13.341-33.7
			c-8.447-8.8-19.307-13.671-30.581-13.716c-11.135-0.046-22.787-0.226-35.62-0.553l-4.459-0.115l-0.874-52.247
			c-0.438-26.267-19.385-46.759-44.073-47.669c-12.138-0.438-25.01,4.766-34.384,13.95c-8.585,8.414-13.215,19.024-13.035,29.875
			l0.853,50.956l-5.142-0.448c-11.133-0.97-20.372-1.846-29.076-2.76C2275.349,2319.002,2274.129,2318.94,2272.91,2318.94z"/>
		<path d="M1104.68,1184.405c-7.039-6.153-14.078-12.307-21.117-18.46c7.314-5.821,14.721-11.484,22.23-16.939
			c7.614-5.531,11.354-15.168,6.26-23.876c-4.397-7.517-16.209-11.83-23.876-6.26c-10.593,7.695-20.975,15.662-31.152,23.878
			c-2.771-2.423-5.543-4.846-8.315-7.269c-7.092-6.2-17.7-6.979-24.679,0c-6.329,6.329-7.125,18.45,0,24.679
			c2.046,1.788,4.092,3.576,6.137,5.365c-9.255,8.238-18.319,16.695-27.134,25.423c-6.698,6.632-6.641,18.038,0,24.679
			c6.714,6.714,17.961,6.652,24.679,0c9.367-9.274,18.999-18.294,28.858-27.021c7.809,6.827,15.619,13.654,23.428,20.481
			c7.092,6.2,17.701,6.979,24.679,0C1111.009,1202.755,1111.806,1190.633,1104.68,1184.405z"/>
		<path d="M1075.977,2161.602c-1.212,0-2.413-0.101-3.59-0.307c-11.892-2.079-19.84-13.216-18.487-25.907l0.705-6.62
			c-11.314-3.315-22.554-6.883-33.471-10.625c-5.122-1.756-9.237-5.735-11.584-11.202c-2.629-6.122-2.658-13.427-0.077-19.066
			c5.012-10.951,17.182-15.627,29.595-11.373c6.498,2.228,13.338,4.437,20.403,6.586l2.303-21.622
			c0.591-5.547,3.567-10.599,8.381-14.227c5.188-3.911,11.891-5.616,17.923-4.559c11.891,2.079,19.839,13.216,18.488,25.907
			l-2.806,26.349c11.227,2.596,22.62,4.938,33.93,6.974c12.089,2.177,20.522,14.199,18.413,26.251
			c-1.015,5.807-4.458,11.135-9.446,14.62c-5.025,3.51-11.003,4.863-16.834,3.814c-9.952-1.791-20.319-3.909-30.892-6.313
			l-0.237,2.228c-0.591,5.547-3.568,10.6-8.382,14.228C1086.133,2159.884,1080.977,2161.602,1075.977,2161.602z M1030.075,2085.451
			c-4.495,0-8.862,1.931-11.082,6.781c-1.369,2.989-1.299,7.141,0.177,10.576c0.675,1.573,2.27,4.371,5.36,5.429
			c12.108,4.151,24.621,8.085,37.19,11.691c2.444,0.701,4.031,3.057,3.762,5.586l-1.17,10.982
			c-0.663,6.224,2.517,13.197,9.879,14.484c3.186,0.56,6.945-0.442,9.817-2.607c2.474-1.863,3.991-4.341,4.272-6.973l0.863-8.106
			c0.159-1.494,0.953-2.847,2.178-3.716c1.226-0.868,2.765-1.171,4.228-0.825c12.395,2.917,24.549,5.453,36.127,7.537
			c3.072,0.553,6.261-0.191,8.983-2.093c2.72-1.9,4.589-4.758,5.129-7.841c1.135-6.49-3.424-12.967-9.955-14.142
			c-13.008-2.342-26.124-5.082-38.983-8.145c-2.562-0.611-4.271-3.029-3.992-5.647l3.296-30.944
			c0.662-6.224-2.518-13.197-9.88-14.484c-3.186-0.56-6.946,0.442-9.818,2.607c-2.473,1.865-3.99,4.341-4.271,6.974l0,0
			l-2.97,27.891c-0.164,1.544-1.005,2.936-2.297,3.798c-1.29,0.863-2.897,1.11-4.388,0.669c-9.351-2.753-18.387-5.622-26.858-8.527
			C1033.885,2085.794,1031.968,2085.451,1030.075,2085.451z M1066.978,2062.021h0.011H1066.978z"/>
		<path d="M1987.013,1086.34c-14.118-14.984-28.746-29.466-43.854-43.427c7.77-9.944,15.734-19.755,23.964-29.429
			c6.103-7.173,7.042-17.638,0-24.679c-6.257-6.257-18.545-7.211-24.679,0c-8.647,10.163-17.07,20.515-25.308,31.012
			c-7.037-6.011-14.154-11.93-21.379-17.721c-7.347-5.89-17.501-7.178-24.679,0c-6.101,6.101-7.392,18.753,0,24.679
			c8.469,6.789,16.803,13.739,25.013,20.828c-9.944,13.625-19.557,27.493-28.784,41.616c-5.156,7.893-1.586,19.286,6.26,23.876
			c8.495,4.968,18.707,1.651,23.876-6.261c7.98-12.214,16.177-24.157,24.625-35.871c13.832,12.924,27.274,26.267,40.266,40.055
			c6.464,6.862,18.155,6.525,24.679,0C1993.859,1104.173,1993.495,1093.22,1987.013,1086.34z"/>
		<path d="M1346.093,1173.86c-4.128,0-8.188-1.001-11.512-2.941c-10.282-6.002-13.743-18.552-8.418-30.519
			c2.947-6.622,6.047-13.344,9.419-20.422c-10.926-4.79-21.542-9.66-31.626-14.505c-4.965-2.386-8.667-6.858-10.425-12.593
			c-1.935-6.318-1.226-13.284,1.897-18.634c6.098-10.446,18.989-13.959,30.657-8.353c9.556,4.592,19.609,9.189,29.945,13.695
			c9.04-16.773,18.699-33.407,28.751-49.508c0.001,0,0.001,0,0.001,0c6.694-10.72,20.289-14.245,30.948-8.022
			c5.199,3.035,9.046,8.276,10.553,14.379c1.463,5.921,0.583,11.882-2.478,16.784c-8.736,13.992-17.295,28.633-25.487,43.594
			c11.544,4.361,23.342,8.553,35.152,12.489c12.149,4.048,18.817,16.032,15.512,27.874c-1.647,5.899-5.859,11.019-11.557,14.046
			c-5.358,2.847-11.268,3.428-16.641,1.638c-14.223-4.739-28.772-9.979-43.312-15.597c-4.05,8.384-7.944,16.77-11.601,24.987
			c-2.182,4.902-6.489,8.604-12.128,10.422C1351.275,1173.469,1348.67,1173.86,1346.093,1173.86z M1314.727,1073.741
			c-3.93,0-7.834,1.633-10.257,5.783c-1.65,2.827-2.006,6.77-0.928,10.288c0.516,1.684,1.845,4.731,4.948,6.223
			c11.489,5.52,23.681,11.074,36.238,16.507c1.309,0.566,2.33,1.642,2.828,2.978c0.498,1.337,0.428,2.818-0.192,4.103
			c-4.254,8.811-8.06,17-11.636,25.034c-2.413,5.423-2.78,13.186,4.13,17.219c2.821,1.646,7.111,1.981,10.671,0.832
			c1.959-0.631,4.55-1.962,5.775-4.714c4.338-9.747,9.004-19.725,13.867-29.659c1.198-2.448,4.076-3.564,6.612-2.573
			c15.87,6.219,31.788,11.994,47.311,17.167c2.625,0.874,5.615,0.537,8.417-0.95c3.132-1.664,5.519-4.511,6.385-7.615
			c1.778-6.37-1.978-12.873-8.737-15.126c-13.869-4.622-27.724-9.593-41.18-14.778c-1.404-0.541-2.506-1.659-3.028-3.069
			c-0.521-1.41-0.411-2.977,0.302-4.3c9.153-16.978,18.799-33.604,28.671-49.414c1.548-2.479,1.972-5.579,1.194-8.728
			c-0.832-3.37-2.898-6.23-5.666-7.847c-5.74-3.349-13.112-1.361-16.788,4.525c-10.774,17.258-21.094,35.137-30.67,53.139
			c-1.278,2.405-4.189,3.425-6.69,2.351c-12.02-5.17-23.712-10.481-34.753-15.785
			C1319.479,1074.335,1317.098,1073.741,1314.727,1073.741z"/>
		<path d="M2174.318,2037.991c-14.118-14.984-28.746-29.466-43.854-43.427c7.77-9.944,15.734-19.755,23.964-29.429
			c6.103-7.173,7.042-17.638,0-24.679c-6.257-6.257-18.544-7.211-24.679,0c-8.647,10.163-17.07,20.515-25.308,31.012
			c-7.037-6.011-14.154-11.93-21.379-17.721c-7.347-5.89-17.501-7.178-24.679,0c-6.101,6.101-7.392,18.753,0,24.679
			c8.469,6.789,16.803,13.739,25.013,20.828c-9.944,13.625-19.557,27.493-28.784,41.615c-5.156,7.893-1.586,19.286,6.26,23.876
			c8.495,4.968,18.707,1.651,23.876-6.261c7.98-12.214,16.177-24.157,24.625-35.871c13.832,12.924,27.274,26.266,40.266,40.055
			c6.465,6.862,18.155,6.525,24.679,0C2181.164,2055.824,2180.8,2044.871,2174.318,2037.991z"/>
	</g>
</g>
</svg>
